<?xml version="1.0" encoding="UTF-8" standalone="no"?>
<!DOCTYPE svg PUBLIC "-//W3C//DTD SVG 1.1//EN" "http://www.w3.org/Graphics/SVG/1.1/DTD/svg11.dtd">
<!-- Generated by Microsoft Visio, SVG Export generate.svg Page-1 -->
<svg xmlns="http://www.w3.org/2000/svg" xmlns:xlink="http://www.w3.org/1999/xlink" xmlns:ev="http://www.w3.org/2001/xml-events"
		xmlns:v="http://schemas.microsoft.com/visio/2003/SVGExtensions/" width="5.19353in" height="1.32184in"
		viewBox="0 0 373.934 95.1722" xml:space="preserve" color-interpolation-filters="sRGB" class="st12">
	<v:documentProperties v:langID="2057" v:metric="true" v:viewMarkup="false"/>

	<style type="text/css">
	<![CDATA[
		.st1 {fill:#595959;stroke:none;stroke-linecap:butt;stroke-width:0.75}
		.st2 {fill:#ffffff;stroke:#000000;stroke-linecap:round;stroke-linejoin:round;stroke-width:4.5}
		.st3 {fill:#000000;font-family:Calibri;font-size:1.00001em}
		.st4 {fill:#ffffff;stroke:#000000;stroke-linecap:round;stroke-linejoin:round;stroke-width:0.75}
		.st5 {fill:#000000;font-family:Calibri;font-size:0.833336em}
		.st6 {fill:#ffffff}
		.st7 {stroke:#000000;stroke-linecap:round;stroke-linejoin:round;stroke-width:0.24}
		.st8 {marker-end:url(#mrkr5-22);stroke:#000000;stroke-linecap:round;stroke-linejoin:round;stroke-width:0.75}
		.st9 {fill:#000000;fill-opacity:1;stroke:#000000;stroke-opacity:1;stroke-width:0.22935779816514}
		.st10 {fill:none;stroke:none;stroke-linecap:round;stroke-linejoin:round;stroke-width:0.75}
		.st11 {fill:#000000;font-family:Calibri;font-size:1.00001em;font-style:italic}
		.st12 {fill:none;fill-rule:evenodd;font-size:12px;overflow:visible;stroke-linecap:square;stroke-miterlimit:3}
	]]>
	</style>

	<defs id="Markers">
		<g id="lend5">
			<path d="M 2 1 L 0 0 L 1.98117 -0.993387 C 1.67173 -0.364515 1.67301 0.372641 1.98465 1.00043 " style="stroke:none"/>
		</g>
		<marker id="mrkr5-22" class="st9" v:arrowType="5" v:arrowSize="2" v:setback="7.63" refX="-7.63" orient="auto"
				markerUnits="strokeWidth" overflow="visible">
			<use xlink:href="#lend5" transform="scale(-4.36,-4.36) "/>
		</marker>
	</defs>
	<g v:mID="0" v:index="1" v:groupContext="foregroundPage">
		<title>Page-1</title>
		<v:pageProperties v:drawingScale="0.0393701" v:pageScale="0.0393701" v:drawingUnits="24" v:shadowOffsetX="8.50394"
				v:shadowOffsetY="-8.50394"/>
		<v:layer v:name="Flowchart" v:index="0"/>
		<g id="shape6-1" v:mID="6" v:groupContext="shape" transform="translate(0.75,-14.5482)">
			<title>History</title>
			<v:userDefs>
				<v:ud v:nameU="msvShapeCategories" v:prompt="" v:val="VT4(Icon)"/>
				<v:ud v:nameU="visVersion" v:prompt="" v:val="VT0(15):26"/>
			</v:userDefs>
			<path d="M14.4 66.83 A14.4006 14.1739 -180 0 0 0 81 A14.4001 14.1733 -180 0 0 14.4 95.17 A14.3995 14.1727 -180 0 0 28.8
						 81 A14.4001 14.1733 -180 0 0 14.4 66.83 ZM14.4 92.51 A11.7135 11.529 0 0 1 2.7 81 A11.7135 11.529 0 0 1
						 14.4 69.48 A11.7135 11.529 0 0 1 26.1 81 A11.7135 11.529 0 0 1 14.4 92.51 ZM14.4 71.25 L12.6 78.34 L14.4
						 81 L16.2 78.34 L14.4 71.25 ZM14.4 81 L16.2 83.66 L24.3 86.31 L17.55 81 L14.4 81 Z" class="st1"/>
		</g>
		<g id="shape1-3" v:mID="1" v:groupContext="shape" transform="translate(29.3232,-28.7215)">
			<title>Sheet.1</title>
			<desc>Generator</desc>
			<v:textBlock v:margins="rect(4,4,4,4)" v:tabSpace="42.5197"/>
			<v:textRect cx="35.3197" cy="80.9989" width="70.64" height="28.3464"/>
			<rect x="0" y="66.8257" width="70.6394" height="28.3464" class="st2"/>
			<text x="10.18" y="84.6" class="st3" v:langID="2057"><v:paragraph v:horizAlign="1"/><v:tabList/>Generator</text>		</g>
		<g id="shape2-6" v:mID="2" v:groupContext="shape" transform="translate(270.268,-28.7215)">
			<title>Sheet.2</title>
			<desc>Resource</desc>
			<v:textBlock v:margins="rect(4,4,4,4)" v:tabSpace="42.5197"/>
			<v:textRect cx="35.3197" cy="80.9989" width="70.64" height="28.3464"/>
			<rect x="0" y="66.8257" width="70.6394" height="28.3464" class="st4"/>
			<text x="12.8" y="84.6" class="st3" v:langID="2057"><v:paragraph v:horizAlign="1"/><v:tabList/>Resource</text>		</g>
		<g id="shape3-9" v:mID="3" v:groupContext="shape" transform="translate(322.921,38.1042) rotate(90)">
			<title>Triangle</title>
			<desc>Pipe</desc>
			<v:userDefs>
				<v:ud v:nameU="visVersion" v:val="VT0(15):26"/>
			</v:userDefs>
			<v:textBlock v:margins="rect(4,4,4,4)" v:tabSpace="42.5197"/>
			<v:textRect cx="14.1732" cy="80.9989" width="28.35" height="28.3465" transform="rotate(-90)"/>
			<path d="M28.35 95.17 L14.17 52.65 L0 95.17 L28.35 95.17 Z" class="st4"/>
			<text x="-89.84" y="17.17" transform="rotate(-90)" class="st5" v:langID="2057"><v:paragraph v:horizAlign="1"/><v:tabList/>Pipe</text>		</g>
		<g id="shape4-12" v:mID="4" v:groupContext="shape" v:layerMember="0" transform="translate(37.8272,-71.2411)">
			<title>Message</title>
			<desc>Message</desc>
			<v:custProps>
				<v:cp v:nameU="BpmnId" v:lbl="Id" v:prompt="" v:type="0" v:format="" v:sortKey="" v:invis="true" v:ask="false"
						v:langID="1033" v:cal="0"/>
				<v:cp v:nameU="BpmnCategories" v:lbl="Categories" v:prompt="" v:type="0" v:format="" v:sortKey="" v:invis="false"
						v:ask="false" v:langID="1033" v:cal="0"/>
				<v:cp v:nameU="BpmnDocumentation" v:lbl="Documentation" v:prompt="" v:type="0" v:format="" v:sortKey=""
						v:invis="false" v:ask="false" v:langID="1033" v:cal="0"/>
				<v:cp v:nameU="BpmnName" v:lbl="Name" v:prompt="" v:type="0" v:format="" v:sortKey="" v:invis="true" v:ask="false"
						v:langID="1033" v:cal="0" v:val="VT4()"/>
				<v:cp v:nameU="BpmnElementType" v:lbl="ElementType" v:prompt="" v:type="1"
						v:format="&#34;Sub-Process;Event;Gateway;Process Diagram;Pool;Lane;Artifact;Connecting Object&#34;"
						v:sortKey="" v:invis="true" v:ask="false" v:langID="1033" v:cal="0" v:val="VT4(Artifact)"/>
				<v:cp v:nameU="BpmnInitiating" v:lbl="Initiating" v:prompt="" v:type="3" v:format="" v:sortKey="" v:invis="false"
						v:ask="false" v:langID="1033" v:cal="0" v:val="VT0(1):26"/>
				<v:cp v:nameU="BpmnName" v:lbl="" v:prompt="" v:type="0" v:format="" v:sortKey="" v:invis="false" v:ask="false"
						v:langID="0" v:cal="0" v:val="VT4(Message)"/>
			</v:custProps>
			<v:userDefs>
				<v:ud v:nameU="msvShapeCategories" v:prompt="" v:val="VT4(Message)"/>
				<v:ud v:nameU="HasText" v:prompt="" v:val="VT0(0):5"/>
				<v:ud v:nameU="visVersion" v:prompt="" v:val="VT0(15):26"/>
				<v:ud v:nameU="HasText" v:prompt="" v:val="VT0(1):5"/>
			</v:userDefs>
			<v:textBlock v:margins="rect(4,4,4,4)" v:tabSpace="42.5197"/>
			<v:textRect cx="28.3465" cy="88.369" width="53.71" height="22.4037"/>
			<path d="M0 95.17 L56.69 95.17 L56.69 71.36 L0 71.36 L0 95.17 Z" class="st6"/>
			<path d="M0 95.17 L56.69 95.17 L56.69 71.36 L0 71.36 L0 95.17" class="st7"/>
			<path d="M0 71.36 L28.35 83.27 L56.69 71.36" class="st7"/>
			<text x="6.85" y="91.97" class="st3" v:langID="2057"><v:paragraph v:horizAlign="1"/><v:tabList/>Message</text>		</g>
		<g id="shape5-17" v:mID="5" v:groupContext="shape" transform="translate(114.363,-42.8947)">
			<title>Sheet.5</title>
			<path d="M0 95.17 L93.49 95.17" class="st8"/>
		</g>
		<g id="shape7-23" v:mID="7" v:groupContext="shape" transform="translate(15.6035,-0.375)">
			<title>Sheet.7</title>
			<desc>Arrival time</desc>
			<v:textBlock v:margins="rect(4,4,4,4)" v:tabSpace="42.5197"/>
			<v:textRect cx="35.3197" cy="88.0855" width="70.64" height="14.1732"/>
			<rect x="0" y="80.9989" width="70.6394" height="14.1732" class="st10"/>
			<text x="4" y="91.69" class="st11" v:langID="2057"><v:paragraph/><v:tabList/>Arrival time</text>		</g>
		<g id="shape8-26" v:mID="8" v:groupContext="shape" transform="translate(341.134,-14.5482)">
			<title>History.8</title>
			<v:userDefs>
				<v:ud v:nameU="msvShapeCategories" v:prompt="" v:val="VT4(Icon)"/>
				<v:ud v:nameU="visVersion" v:prompt="" v:val="VT0(15):26"/>
			</v:userDefs>
			<path d="M14.4 66.83 A14.4006 14.1739 -180 0 0 0 81 A14.4001 14.1733 -180 0 0 14.4 95.17 A14.3995 14.1727 -180 0 0 28.8
						 81 A14.4001 14.1733 -180 0 0 14.4 66.83 ZM14.4 92.51 A11.7135 11.529 0 0 1 2.7 81 A11.7135 11.529 0 0 1
						 14.4 69.48 A11.7135 11.529 0 0 1 26.1 81 A11.7135 11.529 0 0 1 14.4 92.51 ZM14.4 71.25 L12.6 78.34 L14.4
						 81 L16.2 78.34 L14.4 71.25 ZM14.4 81 L16.2 83.66 L24.3 86.31 L17.55 81 L14.4 81 Z" class="st1"/>
		</g>
		<g id="shape9-28" v:mID="9" v:groupContext="shape" transform="translate(284.895,-0.375)">
			<title>Sheet.9</title>
			<desc>Service time</desc>
			<v:textBlock v:margins="rect(4,4,4,4)" v:tabSpace="42.5197"/>
			<v:textRect cx="35.3197" cy="88.0855" width="70.64" height="14.1732"/>
			<rect x="0" y="80.9989" width="70.6394" height="14.1732" class="st10"/>
			<text x="7.83" y="91.69" class="st11" v:langID="2057"><v:paragraph v:horizAlign="2"/><v:tabList/>Service time</text>		</g>
	</g>
</svg>
